<svg class="svg-plant" fill="#aef100" width="96" height="96" viewBox="0 0 1 1" preserveAspectRatio="xMidYMax meet" xmlns="http://www.w3.org/2000/svg" xmlns:xlink="http://www.w3.org/1999/xlink"><svg class="svg-plant-pot" viewBox="0 0 100 100" preserveAspectRatio="xMidYMax meet" xmlns="http://www.w3.org/2000/svg" xmlns:xlink="http://www.w3.org/1999/xlink" x="0" y="0.7" width="1" height="0.3"><path d="M 0 0 L 100 0 L 98 20 L 96 20 L 85 100 L 15 100 L 4 20 L 2 20 Z"></path></svg><svg class="svg-plant-body" viewBox="-51500 -95083 103000 95083" preserveAspectRatio="xMidYMax meet" xmlns="http://www.w3.org/2000/svg" xmlns:xlink="http://www.w3.org/1999/xlink" x="0" y="0" width="1" height="0.701"><path d="M 1887 0 L 3516 -9534 L 7925 -9499 L 7647 0 Z"></path><path d="M 3516 -9534 L 3212 -17894 L 8357 -17448 L 7925 -9499 Z"></path><path d="M 3212 -17894 L 4287 -31235 L 9656 -31487 L 8357 -17448 Z"></path><path d="M 4287 -31235 L 4179 -44746 L 8516 -44537 L 9656 -31487 Z"></path><path d="M 4179 -44746 L 12848 -48808 L 14210 -46339 L 8516 -44537 Z"></path><path d="M 12848 -48808 L 18730 -51947 L 19877 -49571 L 14210 -46339 Z"></path><path d="M 4179 -44746 L 1764 -51243 L 4354 -52443 L 8516 -44537 Z"></path><path d="M 1764 -51243 L -1033 -57798 L 1244 -58638 L 4354 -52443 Z"></path><path d="M 4179 -44746 L 5798 -49593 L 7880 -49506 L 8516 -44537 Z"></path><path d="M 5798 -49593 L 5812 -57547 L 8521 -57083 L 7880 -49506 Z"></path><path d="M 4179 -44746 L 489 -45991 L 1530 -48804 L 8516 -44537 Z"></path><path d="M 489 -45991 L -3063 -47310 L -1977 -50096 L 1530 -48804 Z"></path><path d="M 4179 -44746 L 7710 -50518 L 10479 -49521 L 8516 -44537 Z"></path><path d="M 7710 -50518 L 9739 -55548 L 12050 -54487 L 10479 -49521 Z"></path><path d="M 95 -57790 C -6709 -61900 -31694 -58558 -39643 -58576 C -31700 -58280 -6866 -53952 95 -57790"></path><path d="M 261 -57748 C 7828 -59341 23380 -78303 29046 -83567 C 23200 -78504 2665 -65098 261 -57748"></path><path d="M 185 -57653 C 5059 -63420 5666 -87358 6874 -94812 C 5407 -87405 -2373 -64758 185 -57653"></path><path d="M 511 -57677 C 2781 -63639 -3440 -82888 -4564 -89168 C -3660 -82853 -3517 -62624 511 -57677"></path><path d="M 299 -57485 C -5172 -63538 -30717 -67649 -38524 -70020 C -30805 -67377 -7679 -55774 299 -57485"></path><path d="M 599 -57281 C -4322 -63881 -29593 -70434 -37211 -73557 C -29707 -70170 -7577 -56319 599 -57281"></path><path d="M 7181 -56740 C 12470 -62519 14078 -87306 15635 -94983 C 13811 -87366 4821 -64210 7181 -56740"></path><path d="M 798 -57041 C -4878 -59982 -24752 -55986 -31132 -55582 C -24742 -55763 -4586 -53596 798 -57041"></path><path d="M 873 -57052 C -2129 -63331 -22015 -72901 -27822 -76737 C -22153 -72701 -6066 -57592 873 -57052"></path><path d="M 7134 -56771 C 5244 -64558 -14890 -80065 -20522 -85767 C -15092 -79872 -555 -59027 7134 -56771"></path><path d="M 7236 -56755 C 6130 -63490 -9971 -77950 -14387 -83153 C -10156 -77799 851 -59165 7236 -56755"></path><path d="M 7292 -56554 C 15431 -57271 34136 -75198 40744 -80004 C 33972 -75431 10741 -63961 7292 -56554"></path><path d="M 7046 -56489 C 13200 -59958 21535 -80751 25024 -86894 C 21323 -80876 7119 -63553 7046 -56489"></path><path d="M 7332 -56179 C 15187 -56037 34896 -71279 41703 -75203 C 34763 -71519 11382 -62911 7332 -56179"></path><path d="M 7094 -56076 C 14038 -58333 26730 -77697 31519 -83208 C 26540 -77868 8612 -63218 7094 -56076"></path><path d="M 6998 -55831 C 8842 -63668 -2154 -86708 -4610 -94375 C -2423 -86627 1133 -61347 6998 -55831"></path><path d="M 10828 -54490 C 16051 -51146 35602 -53244 41800 -53067 C 35612 -53460 16335 -57341 10828 -54490"></path><path d="M 10658 -54756 C 15531 -50452 36128 -49479 42522 -48299 C 36173 -49702 16823 -56824 10658 -54756"></path><path d="M 10530 -54474 C 17565 -55479 32968 -71930 38480 -76415 C 32815 -72125 13177 -61069 10530 -54474"></path><path d="M 10568 -54407 C 10229 -61578 -4844 -78639 -8828 -84611 C -5055 -78504 4188 -57699 10568 -54407"></path><path d="M 10740 -54254 C 11666 -61019 524 -79586 -2168 -85862 C 303 -79496 5344 -58438 10740 -54254"></path><path d="M 10452 -54513 C 17264 -52959 37193 -62635 43832 -64811 C 37121 -62868 15204 -59635 10452 -54513"></path><path d="M 10632 -53979 C 15865 -57159 22495 -75410 25343 -80831 C 22308 -75513 10495 -60101 10632 -53979"></path><path d="M 18906 -50708 C 25907 -51306 42031 -66680 47724 -70797 C 41891 -66881 21889 -57070 18906 -50708"></path><path d="M 18748 -50672 C 23194 -47096 41287 -47078 46940 -46303 C 41318 -47275 24068 -52735 18748 -50672"></path><path d="M 18590 -50164 C 21342 -44600 39192 -36303 44417 -32951 C 39313 -36483 24785 -49765 18590 -50164"></path><path d="M 18663 -50618 C 19700 -42654 38073 -25019 43063 -18727 C 38295 -25189 26078 -47534 18663 -50618"></path><path d="M 18550 -50373 C 24497 -48737 42454 -56496 48395 -58157 C 42400 -56704 22941 -54706 18550 -50373"></path><path d="M 18813 -50462 C 23344 -57308 20961 -83232 21319 -91433 C 20675 -83249 15150 -57809 18813 -50462"></path><path d="M 18508 -50223 C 23684 -52755 31456 -69291 34588 -74127 C 31289 -69403 18903 -55971 18508 -50223"></path><path d="M -2176 -48658 C -4886 -55791 -25744 -68052 -31740 -72771 C -25912 -67846 -9708 -49878 -2176 -48658"></path><path d="M -2073 -48641 C 2985 -54461 3939 -78894 5276 -86488 C 3675 -78945 -4585 -55931 -2073 -48641"></path><path d="M -2307 -48400 C 399 -54331 -4681 -74368 -5416 -80845 C -4907 -74346 -6090 -53709 -2307 -48400"></path><path d="M -2287 -48298 C -9688 -45870 -23169 -25175 -28262 -19282 C -22967 -24994 -3885 -40675 -2287 -48298"></path><path d="M -2220 -48400 C -6644 -52473 -25668 -53763 -31557 -54976 C -25714 -53559 -7959 -46606 -2220 -48400"></path><path d="M -2243 -48611 C -9988 -47754 -27441 -30261 -33638 -25537 C -27280 -30042 -5374 -41475 -2243 -48611"></path><path d="M -2122 -48383 C -9121 -48651 -26962 -35423 -33100 -32049 C -26848 -35207 -5855 -42456 -2122 -48383"></path><path d="M -2027 -48264 C -1424 -53832 -10985 -68799 -13335 -73883 C -11163 -68721 -6548 -51571 -2027 -48264"></path><path d="M -1930 -48270 C -5979 -53376 -26128 -57966 -32229 -60257 C -26212 -57754 -8377 -47316 -1930 -48270"></path></svg></svg>