<svg class="svg-plant" fill="#eb244c" width="100" height="100" viewBox="0 0 1 1" preserveAspectRatio="xMidYMax meet" xmlns:xlink="http://www.w3.org/1999/xlink"><svg class="svg-plant-pot" viewBox="0 0 100 100" preserveAspectRatio="xMidYMax meet" xmlns:xlink="http://www.w3.org/1999/xlink" x="0" y="0.7" width="1" height="0.3"><path d="M 0 0 L 100 0 L 98 20 L 96 20 L 85 100 L 15 100 L 4 20 L 2 20 Z"></path></svg><svg class="svg-plant-body" viewBox="-32798 -68871 65596 68871" preserveAspectRatio="xMidYMax meet" xmlns:xlink="http://www.w3.org/1999/xlink" x="0" y="0" width="1" height="0.701"><g class="svg-plant-branches"><path d="M 2798 0 L 3489 -10007 L 4487 -9945 L 3798 0 Z M 3489 -10007 L 4117 -20023 L 5108 -19890 L 4487 -9945 Z M 4117 -20023 L 5443 -29902 L 6441 -29834 L 5108 -19890 Z M 5443 -29902 L 6130 -39913 L 7120 -39776 L 6441 -29834 Z M 6130 -39913 L 7493 -49795 L 8489 -49707 L 7120 -39776 Z M 3489 -10007 L -285 -19003 L 342 -19315 L 4487 -9945 Z M -285 -19003 L -3652 -25773 L -2980 -25971 L 342 -19315 Z M -3652 -25773 L -5230 -31141 L -4578 -31395 L -2980 -25971 Z M -5230 -31141 L -6776 -35117 L -6096 -35280 L -4578 -31395 Z M 4117 -20023 L 12171 -26430 L 12687 -25957 L 5108 -19890 Z M 12171 -26430 L 17274 -31994 L 17717 -31453 L 12687 -25957 Z M 17274 -31994 L 21595 -35522 L 22107 -35045 L 17717 -31453 Z M 21595 -35522 L 24523 -38655 L 24930 -38086 L 22107 -35045 Z M 6130 -39913 L 1549 -48456 L 2154 -48807 L 7120 -39776 Z M 1549 -48456 L -2236 -54976 L -1595 -55258 L 2154 -48807 Z M -2236 -54976 L -4450 -60045 L -3908 -60488 L -1595 -55258 Z M -4450 -60045 L -7163 -63367 L -6543 -63692 L -3908 -60488 Z M -285 -19003 L 1397 -25267 L 1797 -25254 L 342 -19315 Z M 1397 -25267 L 1562 -30028 L 1951 -29937 L 1797 -25254 Z M -285 -19003 L -6000 -20978 L -5884 -21361 L 342 -19315 Z M -6000 -20978 L -10538 -22351 L -10392 -22724 L -5884 -21361 Z M -10538 -22351 L -13805 -23634 L -13723 -24025 L -10392 -22724 Z M -3652 -25773 L -6623 -29176 L -6413 -29516 L -2980 -25971 Z M -6623 -29176 L -9642 -31039 L -9425 -31375 L -6413 -29516 Z M -9642 -31039 L -11865 -32478 L -11666 -32825 L -9425 -31375 Z M -5230 -31141 L -4577 -34762 L -4178 -34783 L -4578 -31395 Z M -4577 -34762 L -4715 -37420 L -4315 -37433 L -4178 -34783 Z M -5230 -31141 L -7965 -32985 L -7821 -33358 L -4578 -31395 Z M -7965 -32985 L -10472 -33954 L -10274 -34302 L -7821 -33358 Z M -10472 -33954 L -12191 -34929 L -12024 -35292 L -10274 -34302 Z M 21595 -35522 L 24692 -34905 L 24630 -34510 L 22107 -35045 Z M 24692 -34905 L 26867 -34554 L 26705 -34188 L 24630 -34510 Z M 1549 -48456 L -680 -49581 L -519 -49948 L 2154 -48807 Z M -680 -49581 L -2557 -50406 L -2351 -50749 L -519 -49948 Z M -2557 -50406 L -3857 -51186 L -3655 -51532 L -2351 -50749 Z M -2236 -54976 L -1364 -57051 L -977 -56950 L -1595 -55258 Z M -1364 -57051 L -968 -58554 L -605 -58386 L -977 -56950 Z M -4450 -60045 L -4188 -61743 L -3793 -61804 L -3908 -60488 Z M -4188 -61743 L -4365 -62918 L -3967 -62880 L -3793 -61804 Z M -4450 -60045 L -5696 -60303 L -5663 -60702 L -3908 -60488 Z M -5696 -60303 L -6879 -60409 L -6749 -60787 L -5663 -60702 Z M 1397 -25267 L 4751 -27330 L 4817 -27255 L 1797 -25254 Z M 4751 -27330 L 6886 -29216 L 6930 -29126 L 4817 -27255 Z M 1397 -25267 L -975 -28022 L -911 -28098 L 1797 -25254 Z M -975 -28022 L -3150 -29856 L -3072 -29918 L -911 -28098 Z M -10538 -22351 L -11121 -25285 L -11030 -25326 L -10392 -22724 Z M -11121 -25285 L -12006 -27230 L -11909 -27251 L -11030 -25326 Z M -6623 -29176 L -6640 -31467 L -6541 -31475 L -6413 -29516 Z M -9642 -31039 L -9846 -32763 L -9752 -32797 L -9425 -31375 Z M -4577 -34762 L -5159 -35475 L -5110 -35562 L -4178 -34783 Z M -10472 -33954 L -10438 -34916 L -10339 -34934 L -10274 -34302 Z M -1364 -57051 L -1848 -57605 L -1784 -57681 L -977 -56950 Z"></path></g><g class="svg-plant-leaves"><path d="M -6758 -60593 C -8212 -64398 -12117 -61474 -13462 -61664 C -12125 -61427 -9325 -57431 -6758 -60593 M -4146 -62423 C 28 -61818 -645 -66824 206 -67943 C -683 -66854 -5708 -66341 -4146 -62423 M -4005 -62249 C -1711 -66007 -6792 -67416 -7517 -68692 C -6837 -67391 -8406 -62357 -4005 -62249 M -4624 -60433 C -7907 -62860 -9625 -58281 -10864 -57716 C -9606 -58238 -5084 -56375 -4624 -60433 M -6719 -63366 C -4977 -66954 -9681 -67783 -10446 -68871 C -9720 -67757 -10697 -63081 -6719 -63366 M -806 -58396 C 2861 -58519 1516 -62703 2072 -63792 C 1478 -62723 -2746 -61511 -806 -58396 M -973 -57698 C 2590 -55420 4044 -60273 5284 -60944 C 4022 -60316 -782 -61924 -973 -57698 M -5699 -62264 C -5212 -65763 -9402 -65175 -10343 -65883 C -9427 -65143 -8973 -60937 -5699 -62264 M -5784 -62127 C -2459 -63927 -5624 -67166 -5612 -68427 C -5668 -67168 -9006 -64106 -5784 -62127 M -1352 -56257 C 2130 -54696 2785 -59218 3803 -59981 C 2759 -59254 -1740 -60053 -1352 -56257 M -1626 -56075 C 1691 -58463 -2148 -61500 -2309 -62853 C -2196 -61495 -5353 -57754 -1626 -56075 M -1611 -50290 C -3929 -53424 -6779 -49725 -8067 -49556 C -6773 -49680 -3167 -46715 -1611 -50290 M -2880 -57182 C 10 -60143 -4350 -62501 -4747 -63822 C -4397 -62488 -6891 -58204 -2880 -57182 M 268 -49465 C -2849 -52489 -5309 -47907 -6694 -47487 C -5295 -47858 -793 -45255 268 -49465 M 410 -49205 C 2488 -52473 -1959 -53793 -2576 -54927 C -1999 -53772 -3459 -49370 410 -49205 M -719 -53028 C 2063 -54663 -733 -57330 -760 -58405 C -771 -57330 -3525 -54620 -719 -53028 M 195 -51745 C 558 -55322 -3681 -54566 -4665 -55249 C -3705 -54532 -3084 -50271 195 -51745 M 26680 -34388 C 27691 -30733 31569 -33097 32798 -32801 C 31580 -33139 29340 -37091 26680 -34388 M 26102 -34444 C 24718 -31609 28438 -30945 29040 -30083 C 28468 -30965 29250 -34662 26102 -34444 M 23208 -35024 C 26201 -32513 28110 -36786 29326 -37253 C 28095 -36828 23885 -38872 23208 -35024 M 22927 -35013 C 22744 -31159 27244 -32213 28338 -31537 C 27268 -32251 26356 -36782 22927 -35013 M -10388 -34885 C -7173 -36812 -10448 -39883 -10490 -41132 C -10491 -39882 -13664 -36706 -10388 -34885 M -11579 -26469 C -10643 -30644 -15759 -30350 -16825 -31298 C -15793 -30314 -15662 -25191 -11579 -26469 M -10375 -34383 C -9432 -38431 -14405 -38189 -15433 -39118 C -14438 -38153 -14353 -33175 -10375 -34383 M 4464 -44163 C 4854 -47455 935 -46824 38 -47469 C 911 -46793 1418 -42855 4464 -44163 M -11357 -34760 C -12951 -37502 -15586 -34766 -16643 -34744 C -15586 -34729 -12934 -32008 -11357 -34760 M -9666 -31724 C -5769 -33848 -9495 -37640 -9484 -39119 C -9546 -37641 -13454 -34037 -9666 -31724 M 22760 -36416 C 26529 -37107 24496 -41222 24904 -42432 C 24454 -41237 20277 -39335 22760 -36416 M -5097 -35481 C -4757 -38997 -8918 -38234 -9888 -38901 C -8942 -38200 -8311 -34017 -5097 -35481 M 4343 -43656 C 7589 -45601 4283 -48701 4240 -49962 C 4239 -48700 1035 -45494 4343 -43656 M -4912 -35292 C -2708 -38846 -7525 -40217 -8205 -41434 C -7568 -40194 -9091 -35424 -4912 -35292 M -4844 -35274 C -6878 -38553 -9988 -35134 -11273 -35071 C -9987 -35089 -6668 -31872 -4844 -35274 M -11654 -32579 C -11492 -35673 -15108 -34844 -15984 -35391 C -15128 -34814 -14414 -31173 -11654 -32579 M -10800 -23999 C -8083 -25776 -11022 -28323 -11101 -29402 C -11060 -28321 -13698 -25463 -10800 -23999 M -1906 -28886 C -2158 -33191 -7034 -31488 -8330 -32110 C -7056 -31443 -5509 -26516 -1906 -28886 M -1851 -28804 C 1151 -31639 -3100 -34166 -3442 -35500 C -3147 -34155 -5808 -29986 -1851 -28804 M -10650 -23460 C -10162 -27880 -15413 -26990 -16623 -27847 C -15444 -26949 -14721 -21672 -10650 -23460 M -6569 -30636 C -3513 -30719 -4611 -34212 -4142 -35116 C -4643 -34229 -8169 -33241 -6569 -30636 M -9407 -33706 C -7318 -37395 -12253 -38590 -12992 -39795 C -12296 -38565 -13646 -33670 -9407 -33706 M -13599 -23765 C -15499 -27651 -19351 -24188 -20791 -24262 C -19355 -24137 -16015 -20177 -13599 -23765 M -97 -27103 C 1557 -29719 -2000 -30764 -2495 -31669 C -2031 -30748 -3189 -27226 -97 -27103 M 3544 -26542 C 6671 -26821 5322 -30331 5746 -31288 C 5289 -30346 1738 -29110 3544 -26542 M -12574 -23382 C -15414 -25153 -16522 -21301 -17498 -20760 C -16504 -21267 -12689 -20037 -12574 -23382 M -8448 -30646 C -9899 -33377 -12569 -30809 -13599 -30827 C -12570 -30773 -10088 -28023 -8448 -30646 M -11513 -22853 C -10357 -26065 -14437 -26342 -15186 -27198 C -14467 -26316 -14873 -22247 -11513 -22853 M 7923 -49256 C 10683 -50505 8338 -53274 8420 -54281 C 8303 -53278 5461 -51021 7923 -49256 M -7690 -29971 C -5829 -33925 -10994 -34770 -11846 -35952 C -11036 -34741 -12044 -29606 -7690 -29971 M -6336 -32298 C -7950 -35030 -10567 -32273 -11624 -32244 C -10567 -32236 -7894 -29533 -6336 -32298 M 1749 -29747 C 4954 -30270 3299 -33790 3665 -34809 C 3264 -33803 -307 -32261 1749 -29747 M -6359 -35002 C -3282 -37058 -6659 -39928 -6761 -41157 C -6702 -39925 -9678 -36640 -6359 -35002 M 7298 -44859 C 9640 -47588 5728 -49390 5310 -50513 C 5688 -49376 3763 -45522 7298 -44859 M -3580 -20302 C -2334 -23354 -6259 -23788 -6947 -24644 C -6289 -23764 -6846 -19855 -3580 -20302 M -4018 -28416 C -3063 -32084 -7601 -31981 -8516 -32852 C -7632 -31949 -7673 -27410 -4018 -28416 M 557 -21065 C 4963 -21114 3460 -26172 4157 -27464 C 3415 -26197 -1688 -24855 557 -21065 M -3948 -27623 C -339 -28586 -2633 -32427 -2331 -33634 C -2675 -32438 -6586 -30267 -3948 -27623 M 6440 -35987 C 10724 -35453 9932 -40563 10780 -41726 C 9892 -40594 4759 -39964 6440 -35987 M 6315 -35865 C 8636 -38852 4435 -40545 3939 -41705 C 4394 -40529 2568 -36383 6315 -35865 M 9158 -23530 C 11790 -21407 13371 -25136 14415 -25560 C 13356 -25173 9680 -26870 9158 -23530 M -1533 -22607 C -832 -25685 -4608 -25483 -5392 -26185 C -4632 -25456 -4550 -21675 -1533 -22607 M 5353 -26798 C 7226 -30542 2298 -31470 1509 -32621 C 2258 -31443 1175 -26547 5353 -26798 M 1406 -15566 C 4883 -17538 1469 -20895 1456 -22228 C 1423 -20896 -2041 -17590 1406 -15566 M 1896 -14851 C 1989 -18786 -2574 -17601 -3706 -18264 C -2598 -17562 -1558 -12965 1896 -14851 M 4412 -15364 C 8621 -15021 7634 -19981 8414 -21153 C 7594 -20009 2605 -19180 4412 -15364 M 4233 -15169 C 6180 -17478 2881 -18964 2522 -19905 C 2848 -18952 1259 -15701 4233 -15169"></path></g></svg></svg>