<?xml version="1.0" encoding="UTF-8" standalone="no"?>
<svg class="svg-plant" fill="#aef100" width="100" height="100" viewBox="0 0 1 1" preserveAspectRatio="xMidYMax meet" xmlns:xlink="http://www.w3.org/1999/xlink"><svg class="svg-plant-pot" viewBox="0 0 100 100" preserveAspectRatio="xMidYMax meet" xmlns:xlink="http://www.w3.org/1999/xlink" x="0" y="0.7" width="1" height="0.3"><path d="M 0 0 L 100 0 L 98 20 L 96 20 L 85 100 L 15 100 L 4 20 L 2 20 Z"></path></svg><svg class="svg-plant-body" viewBox="-17500 -32812 35000 32812" preserveAspectRatio="xMidYMax meet" xmlns:xlink="http://www.w3.org/1999/xlink" x="0" y="0" width="1" height="0.701"><g class="svg-plant-branches"><path d="M 1989 0 L 3422 -8101 L 4222 -8118 L 2989 0 Z M 3422 -8101 L 3384 -13821 L 4016 -13920 L 4222 -8118 Z M 3384 -13821 L 2784 -18133 L 3252 -18339 L 4016 -13920 Z M 2784 -18133 L 1279 -21686 L 1616 -21918 L 3252 -18339 Z M 1279 -21686 L -324 -24106 L -123 -24366 L 1616 -21918 Z M -324 -24106 L -1743 -25256 L -1657 -25504 L -123 -24366 Z M -1743 -25256 L -3125 -25760 L -3078 -25964 L -1657 -25504 Z"></path></g><g class="svg-plant-leaves"><path d="M -3101 -25862 C -5816 -24060 -5447 -22205 -6013 -21278 C -5415 -22185 -3579 -22639 -3101 -25862 M -3101 -25862 C -5449 -26072 -6080 -24857 -6819 -24590 C -6071 -24832 -4829 -24258 -3101 -25862 M -3101 -25862 C -4083 -28019 -5459 -27967 -6059 -28481 C -5477 -27947 -5362 -26576 -3101 -25862 M -3101 -25862 C -1890 -28711 -3153 -29989 -3189 -31020 C -3189 -29989 -4408 -28668 -3101 -25862 M -1700 -25380 C -5662 -22949 -5230 -20286 -6085 -18993 C -5186 -20255 -2545 -20809 -1700 -25380 M -224 -24236 C -5885 -23179 -6566 -19905 -8127 -18789 C -6528 -19850 -3226 -19321 -224 -24236 M -224 -24236 C 3296 -28301 1889 -31088 2380 -32812 C 1829 -31106 -889 -29572 -224 -24236 M 1448 -21802 C -4233 -22991 -6123 -20203 -8007 -19762 C -6109 -20137 -3237 -18376 1448 -21802 M 1448 -21802 C 6785 -25342 6061 -28988 7174 -30809 C 5998 -29028 2388 -28137 1448 -21802 M 3018 -18236 C -2091 -20305 -4329 -18017 -6164 -17922 C -4326 -17953 -1938 -15823 3018 -18236 M 3018 -18236 C 7889 -20400 7800 -23492 8967 -24832 C 7754 -23534 4669 -23303 3018 -18236 M 3700 -13870 C -308 -17359 -3065 -15976 -4768 -16465 C -3084 -15917 -1575 -13226 3700 -13870 M 3700 -13870 C 8853 -14221 9801 -17066 11308 -17897 C 9773 -17119 6887 -17934 3700 -13870 M 3822 -8110 C 919 -10643 -1081 -9642 -2315 -9999 C -1094 -9600 -3 -7648 3822 -8110 M 3822 -8110 C 7574 -7556 8699 -9450 9910 -9811 C 8687 -9492 6744 -10528 3822 -8110"></path></g></svg></svg>