<svg class="svg-plant" fill="#aef100" width="96" height="96" viewBox="0 0 1 1" preserveAspectRatio="xMidYMax meet" xmlns="http://www.w3.org/2000/svg" xmlns:xlink="http://www.w3.org/1999/xlink"><svg class="svg-plant-pot" viewBox="0 0 100 100" preserveAspectRatio="xMidYMax meet" xmlns="http://www.w3.org/2000/svg" xmlns:xlink="http://www.w3.org/1999/xlink" x="0" y="0.7" width="1" height="0.3"><path d="M 0 0 L 100 0 L 98 20 L 96 20 L 85 100 L 15 100 L 4 20 L 2 20 Z"></path></svg><svg class="svg-plant-body" viewBox="-30500 -66000 61000 66000" preserveAspectRatio="xMidYMax meet" xmlns="http://www.w3.org/2000/svg" xmlns:xlink="http://www.w3.org/1999/xlink" x="0" y="0" width="1" height="0.701"><path d="M 2388 0 L 2994 -9950 L 3992 -10013 L 3388 0 Z"></path><path d="M 2994 -9950 L 2361 -19955 L 3361 -19969 L 3992 -10013 Z"></path><path d="M 2361 -19955 L 2223 -29947 L 3222 -29974 L 3361 -19969 Z"></path><path d="M 2223 -29947 L 1955 -39985 L 2954 -39929 L 3222 -29974 Z"></path><path d="M 2854 -24518 C 4720 -27865 253 -28915 -421 -30000 C 214 -28893 -977 -24461 2854 -24518"></path><path d="M 2670 -23013 C 5729 -23456 4214 -26834 4579 -27798 C 4181 -26848 757 -25441 2670 -23013"></path><path d="M 2994 -9950 L 10389 -17163 L 10943 -16735 L 3992 -10013 Z"></path><path d="M 10389 -17163 L 14988 -23123 L 15506 -22652 L 10943 -16735 Z"></path><path d="M 14988 -23123 L 18732 -27243 L 19321 -26864 L 15506 -22652 Z"></path><path d="M 2994 -9950 L -2938 -17551 L -2493 -18092 L 3992 -10013 Z"></path><path d="M -2938 -17551 L -8759 -22345 L -8253 -22829 L -2493 -18092 Z"></path><path d="M -8759 -22345 L -12595 -26363 L -12196 -26939 L -8253 -22829 Z"></path><path d="M -12595 -26363 L -16093 -28790 L -15633 -29318 L -12196 -26939 Z"></path><path d="M 2361 -19955 L 7970 -28506 L 8606 -28215 L 3361 -19969 Z"></path><path d="M 7970 -28506 L 11110 -35368 L 11703 -34996 L 8606 -28215 Z"></path><path d="M 11110 -35368 L 14083 -40107 L 14706 -39788 L 11703 -34996 Z"></path><path d="M 2223 -29947 L -2627 -38409 L -2030 -38773 L 3222 -29974 Z"></path><path d="M -2627 -38409 L -6557 -44861 L -5910 -45128 L -2030 -38773 Z"></path><path d="M -6557 -44861 L -8704 -50047 L -8067 -50337 L -5910 -45128 Z"></path><path d="M -8278 -49932 C -6293 -52235 -9598 -53765 -9948 -54715 C -9631 -53753 -11264 -50499 -8278 -49932"></path><path d="M -7161 -47329 C -6888 -51157 -11386 -50215 -12458 -50913 C -11411 -50178 -10613 -45652 -7161 -47329"></path><path d="M -4396 -42094 C -4421 -45523 -8362 -44369 -9366 -44915 C -8382 -44334 -7353 -40358 -4396 -42094"></path><path d="M 14245 -39709 C 18231 -39921 16678 -44443 17260 -45639 C 16637 -44464 12068 -43055 14245 -39709"></path><path d="M 13002 -37728 C 16485 -39986 12741 -43257 12646 -44637 C 12693 -43254 9305 -39615 13002 -37728"></path><path d="M -65 -35025 C -178 -38084 -3665 -36949 -4575 -37411 C -3682 -36918 -2658 -33397 -65 -35025"></path><path d="M 10124 -32298 C 13877 -30236 15020 -35236 16227 -35997 C 14994 -35279 10033 -36579 10124 -32298"></path><path d="M 18838 -26845 C 23005 -26702 21802 -31549 22517 -32740 C 21761 -31574 16878 -30526 18838 -26845"></path><path d="M -14686 -28271 C -15351 -31875 -19284 -29926 -20442 -30315 C -19298 -29886 -17475 -25893 -14686 -28271"></path><path d="M -13460 -27346 C -11001 -29495 -14284 -31621 -14513 -32685 C -14321 -31614 -16550 -28400 -13460 -27346"></path><path d="M -10568 -24754 C -11863 -27657 -14781 -25212 -15836 -25304 C -14785 -25176 -12434 -22182 -10568 -24754"></path><path d="M -10584 -24619 C -8783 -27138 -12275 -28385 -12718 -29317 C -12308 -28370 -13665 -24920 -10584 -24619"></path><path d="M 12980 -19884 C 15318 -17097 17761 -20706 18951 -20937 C 17753 -20748 14224 -23303 12980 -19884"></path><path d="M 4562 -22848 C 7746 -24741 4520 -27787 4483 -29021 C 4477 -27786 1331 -24659 4562 -22848"></path><path d="M 12307 -19177 C 16104 -20785 13005 -24630 13149 -25997 C 12957 -24636 9016 -21660 12307 -19177"></path><path d="M -6841 -21007 C -3771 -23061 -7144 -25922 -7246 -27149 C -7187 -25919 -10154 -22639 -6841 -21007"></path><path d="M 7510 -13714 C 9569 -11522 11419 -14613 12391 -14859 C 11411 -14647 8379 -16593 7510 -13714"></path><path d="M 14988 -23123 L 19457 -24338 L 19665 -23996 L 15506 -22652 Z"></path><path d="M 19457 -24338 L 22350 -26089 L 22547 -25741 L 19665 -23996 Z"></path><path d="M -8759 -22345 L -9422 -26977 L -9036 -27080 L -8253 -22829 Z"></path><path d="M -9422 -26977 L -10298 -30273 L -9900 -30307 L -9036 -27080 Z"></path><path d="M 7970 -28506 L 12674 -29301 L 12778 -28915 L 8606 -28215 Z"></path><path d="M 12674 -29301 L 15945 -30180 L 16025 -29788 L 12778 -28915 Z"></path><path d="M -2627 -38409 L -2788 -41547 L -2394 -41613 L -2030 -38773 Z"></path><path d="M -2788 -41547 L -3159 -43787 L -2760 -43811 L -2394 -41613 Z"></path><path d="M -3159 -43787 L -3254 -45431 L -2868 -45536 L -2760 -43811 Z"></path><path d="M -2627 -38409 L -5286 -38408 L -5371 -38798 L -2030 -38773 Z"></path><path d="M -5286 -38408 L -7507 -37928 L -7548 -38325 L -5371 -38798 Z"></path><path d="M -2341 -40003 C -1493 -43482 -5778 -43316 -6655 -44125 C -5807 -43286 -5777 -38998 -2341 -40003"></path><path d="M -2481 -39860 C 1317 -40165 -281 -44440 244 -45597 C -321 -44459 -4645 -42997 -2481 -39860"></path><path d="M -7418 -38150 C -9884 -40814 -12142 -37098 -13318 -36810 C -12133 -37057 -8491 -34682 -7418 -38150"></path><path d="M -6717 -38274 C -7358 -42494 -12008 -40371 -13342 -40866 C -12026 -40325 -10052 -35609 -6717 -38274"></path><path d="M -6565 -38385 C -9273 -40183 -10455 -36474 -11416 -35975 C -10438 -36440 -6768 -35141 -6565 -38385"></path><path d="M -3807 -38656 C -7686 -39203 -7043 -34556 -7829 -33514 C -7007 -34528 -2342 -35024 -3807 -38656"></path><path d="M -3528 -38565 C -4695 -41999 -8267 -39527 -9457 -39742 C -8276 -39486 -5919 -35837 -3528 -38565"></path><path d="M 15822 -29940 C 19008 -27227 21088 -31788 22394 -32278 C 21071 -31834 16578 -34056 15822 -29940"></path><path d="M 14648 -29639 C 17603 -29081 17276 -32669 17916 -33440 C 17249 -32692 13653 -32478 14648 -29639"></path><path d="M 21068 -25054 C 22653 -21639 26067 -24586 27318 -24496 C 26070 -24630 23233 -28134 21068 -25054"></path><path d="M -9625 -28438 C -5543 -29498 -8104 -33852 -7754 -35213 C -8152 -33865 -12584 -31443 -9625 -28438"></path><path d="M 16899 -23245 C 18824 -20786 21023 -23810 22051 -23974 C 21018 -23846 18065 -26141 16899 -23245"></path><path d="M 16760 -23362 C 20054 -22881 19528 -26833 20201 -27715 C 19497 -26857 15530 -26456 16760 -23362"></path><path d="M -8758 -24653 C -8377 -27934 -12282 -27296 -13177 -27937 C -12305 -27265 -11790 -23342 -8758 -24653"></path><path d="M -8829 -24090 C -4655 -25139 -7234 -29602 -6865 -30988 C -7282 -29616 -11824 -27180 -8829 -24090"></path><path d="M -9422 -26977 L -10959 -28060 L -10927 -28155 L -9036 -27080 Z"></path><path d="M -10959 -28060 L -12400 -28540 L -12368 -28635 L -10927 -28155 Z"></path><path d="M -3159 -43787 L -2440 -44912 L -2344 -44886 L -2760 -43811 Z"></path><path d="M -2720 -44140 C 1072 -42520 1693 -47420 2778 -48264 C 1664 -47458 -3214 -48234 -2720 -44140"></path><path d="M -11440 -28277 C -14303 -30926 -16414 -26758 -17648 -26351 C -16400 -26715 -12301 -24473 -11440 -28277"></path><path d="M -9886 -27443 C -12167 -29882 -14228 -26453 -15307 -26182 C -14219 -26415 -10858 -24247 -9886 -27443"></path></svg></svg>