<svg class="svg-plant" fill="#aaa" width="96" height="96" viewBox="0 0 1 1" preserveAspectRatio="xMidYMax meet" xmlns="http://www.w3.org/2000/svg" xmlns:xlink="http://www.w3.org/1999/xlink"><svg class="svg-plant-pot" viewBox="0 0 100 100" preserveAspectRatio="xMidYMax meet" xmlns="http://www.w3.org/2000/svg" xmlns:xlink="http://www.w3.org/1999/xlink" x="0" y="0.7" width="1" height="0.3"><path d="M 0 0 L 100 0 L 98 20 L 96 20 L 85 100 L 15 100 L 4 20 L 2 20 Z"></path></svg><svg class="svg-plant-body" viewBox="-18000 -35000 36000 35000" preserveAspectRatio="xMidYMax meet" xmlns="http://www.w3.org/2000/svg" xmlns:xlink="http://www.w3.org/1999/xlink" x="0" y="0" width="1" height="0.701"><path d="M -2536 0 L -4412 -9095 L -3618 -9190 L -1536 0 Z"></path><path d="M -4412 -9095 L -5089 -15390 L -4449 -15411 L -3618 -9190 Z"></path><path d="M -5089 -15390 L -5145 -19240 L -4640 -19156 L -4449 -15411 Z"></path><path d="M -5145 -19240 L -4676 -21724 L -4307 -21546 L -4640 -19156 Z"></path><path d="M -4676 -21724 L -3957 -23106 L -3722 -22878 L -4307 -21546 Z"></path><path d="M -3957 -23106 L -3017 -24021 L -2883 -23796 L -3722 -22878 Z"></path><path d="M -1665 0 L -2234 -5488 L -1436 -5438 L -665 0 Z"></path><path d="M -2234 -5488 L -1914 -9232 L -1292 -9080 L -1436 -5438 Z"></path><path d="M -1914 -9232 L -1107 -12233 L -640 -12024 L -1292 -9080 Z"></path><path d="M -1107 -12233 L -116 -14315 L 224 -14087 L -640 -12024 Z"></path><path d="M -116 -14315 L 781 -15571 L 1001 -15328 L 224 -14087 Z"></path><path d="M 781 -15571 L 1553 -16217 L 1661 -15978 L 1001 -15328 Z"></path><path d="M -2950 -23909 C -227 -25570 -519 -27398 69 -28283 C -550 -27419 -2362 -27043 -2950 -23909"></path><path d="M -2950 -23909 C -2074 -27477 -3797 -28735 -4035 -29936 C -3839 -28727 -5016 -26948 -2950 -23909"></path><path d="M -2950 -23909 C -135 -22919 1017 -24212 2006 -24310 C 1014 -24247 -331 -25338 -2950 -23909"></path><path d="M -3840 -22992 C -504 -19597 2055 -20640 3540 -20084 C 2075 -20692 915 -23199 -3840 -22992"></path><path d="M -3840 -22992 C -4161 -27929 -6883 -28844 -7676 -30290 C -6934 -28818 -7724 -26056 -3840 -22992"></path><path d="M -4491 -21635 C 917 -18554 3764 -20779 5832 -20611 C 3771 -20851 1417 -23593 -4491 -21635"></path><path d="M -4491 -21635 C -6216 -27201 -9585 -27502 -10891 -28940 C -9636 -27457 -9782 -24078 -4491 -21635"></path><path d="M -4892 -19198 C -8642 -25296 -12743 -24628 -14735 -25942 C -12790 -24559 -11933 -20492 -4892 -19198"></path><path d="M -4892 -19198 C 1745 -18268 3707 -21628 5844 -22282 C 3686 -21702 240 -23508 -4892 -19198"></path><path d="M 1607 -16098 C 2665 -15541 3197 -15987 3595 -15968 C 3198 -16001 2728 -16512 1607 -16098"></path><path d="M 1607 -16098 C 2239 -17998 1357 -18756 1280 -19419 C 1334 -18754 617 -17839 1607 -16098"></path><path d="M 1607 -16098 C 3137 -16805 3094 -17783 3456 -18212 C 3079 -17796 2105 -17708 1607 -16098"></path><path d="M -4769 -15401 C -9361 -19390 -12515 -17803 -14465 -18361 C -12536 -17735 -10806 -14657 -4769 -15401"></path><path d="M 891 -15449 C 1132 -17946 -155 -18626 -434 -19415 C -183 -18617 -803 -17300 891 -15449"></path><path d="M -4769 -15401 C 2018 -15187 3629 -18784 5709 -19676 C 3599 -18857 -69 -20301 -4769 -15401"></path><path d="M 54 -14201 C -391 -17560 -2292 -18062 -2899 -19013 C -2326 -18041 -2739 -16118 54 -14201"></path><path d="M -874 -12129 C -2160 -16164 -4610 -16363 -5567 -17401 C -4647 -16330 -4733 -13873 -874 -12129"></path><path d="M -874 -12129 C 2190 -10139 3933 -11346 5139 -11176 C 3940 -11388 2654 -13074 -874 -12129"></path><path d="M -4015 -9142 C -8290 -12270 -10913 -10664 -12645 -11006 C -10926 -10604 -9200 -8058 -4015 -9142"></path><path d="M -1603 -9156 C 2108 -7748 3682 -9430 5001 -9528 C 3679 -9477 1926 -10972 -1603 -9156"></path><path d="M -4015 -9142 C 447 -9160 1421 -11561 2767 -12195 C 1400 -11608 -1043 -12471 -4015 -9142"></path><path d="M -1835 -5463 C -4180 -8012 -6065 -7315 -7133 -7755 C -6081 -7278 -5298 -5426 -1835 -5463"></path><path d="M -1835 -5463 C 1074 -5326 1789 -6858 2687 -7227 C 1777 -6890 213 -7534 -1835 -5463"></path></svg></svg>