<svg class="svg-plant" fill="#aaa" width="96" height="96" viewBox="0 0 1 1" preserveAspectRatio="xMidYMax meet" xmlns="http://www.w3.org/2000/svg" xmlns:xlink="http://www.w3.org/1999/xlink"><svg class="svg-plant-pot" viewBox="0 0 100 100" preserveAspectRatio="xMidYMax meet" xmlns="http://www.w3.org/2000/svg" xmlns:xlink="http://www.w3.org/1999/xlink" x="0" y="0.7" width="1" height="0.3"><path d="M 0 0 L 100 0 L 98 20 L 96 20 L 85 100 L 15 100 L 4 20 L 2 20 Z"></path></svg><svg class="svg-plant-body" viewBox="-23000 -41000 46000 47402" preserveAspectRatio="xMidYMax meet" xmlns="http://www.w3.org/2000/svg" xmlns:xlink="http://www.w3.org/1999/xlink" x="0" y="0" width="1" height="0.8103015196959894"><path d="M -434 0 L 794 -1701 L 1507 -1656 L 1683 0 Z"></path><path d="M 794 -1701 L 1057 -6067 L 1815 -6251 L 1507 -1656 Z"></path><path d="M 1057 -6067 L 256 -9178 L 1030 -9685 L 1815 -6251 Z"></path><path d="M -434 0 L 917 -1885 L 1753 -1812 L 1683 0 Z"></path><path d="M 917 -1885 L 1335 -6449 L 2144 -6485 L 1753 -1812 Z"></path><path d="M 1335 -6449 L 1180 -9805 L 1987 -10076 L 2144 -6485 Z"></path><path d="M 1180 -9805 L 496 -12248 L 1012 -12579 L 1987 -10076 Z"></path><path d="M 496 -12248 L -576 -13756 L -31 -14362 L 1012 -12579 Z"></path><path d="M -576 -13756 L -1572 -14737 L -1214 -15345 L -31 -14362 Z"></path><path d="M -434 0 L 1209 -1462 L 1588 -1045 L 1683 0 Z"></path><path d="M 1209 -1462 L 5434 -5527 L 5809 -4663 L 1588 -1045 Z"></path><path d="M 5434 -5527 L 9538 -7158 L 9559 -6444 L 5809 -4663 Z"></path><path d="M 9538 -7158 L 12888 -7240 L 12628 -6547 L 9559 -6444 Z"></path><path d="M -434 0 L 105 -1501 L 913 -1364 L 1683 0 Z"></path><path d="M 105 -1501 L 699 -5371 L 1598 -5050 L 913 -1364 Z"></path><path d="M 699 -5371 L 1865 -8076 L 2367 -7756 L 1598 -5050 Z"></path><path d="M 1865 -8076 L 2921 -10039 L 3628 -9428 L 2367 -7756 Z"></path><path d="M 2921 -10039 L 4133 -11194 L 4531 -10717 L 3628 -9428 Z"></path><path d="M 4133 -11194 L 5073 -12107 L 5451 -11359 L 4531 -10717 Z"></path><path d="M -434 0 L 546 -1566 L 1048 -1631 L 1683 0 Z"></path><path d="M 546 -1566 L 105 -4980 L 600 -5159 L 1048 -1631 Z"></path><path d="M 105 -4980 L -863 -7372 L -221 -7701 L 600 -5159 Z"></path><path d="M -863 -7372 L -1671 -9065 L -1207 -9512 L -221 -7701 Z"></path><path d="M -434 0 L 32 -1541 L 700 -2205 L 1683 0 Z"></path><path d="M 32 -1541 L -2310 -4033 L -2163 -4948 L 700 -2205 Z"></path><path d="M -2310 -4033 L -4729 -4496 L -5211 -5364 L -2163 -4948 Z"></path><path d="M -4729 -4496 L -6492 -3820 L -7079 -4022 L -5211 -5364 Z"></path><path d="M -434 0 L 1200 -1204 L 1529 -788 L 1683 0 Z"></path><path d="M 1200 -1204 L 5747 -4880 L 6024 -4240 L 1529 -788 Z"></path><path d="M 5747 -4880 L 9810 -6629 L 9883 -5929 L 6024 -4240 Z"></path><path d="M 9810 -6629 L 13113 -6904 L 13021 -6328 L 9883 -5929 Z"></path><path d="M 13113 -6904 L 15643 -6567 L 15289 -5907 L 13021 -6328 Z"></path><path d="M -434 0 L 667 -1397 L 1183 -1500 L 1683 0 Z"></path><path d="M 667 -1397 L -203 -4701 L 656 -5196 L 1183 -1500 Z"></path><path d="M -203 -4701 L -1386 -6929 L -834 -7608 L 656 -5196 Z"></path><path d="M -1386 -6929 L -2725 -8197 L -2610 -8874 L -834 -7608 Z"></path><path d="M -434 0 L 183 -1254 L 985 -1611 L 1683 0 Z"></path><path d="M 183 -1254 L -950 -4165 L -526 -4637 L 985 -1611 Z"></path><path d="M -950 -4165 L -2646 -5759 L -2458 -6299 L -526 -4637 Z"></path><path d="M -2646 -5759 L -4214 -6170 L -4342 -7091 L -2458 -6299 Z"></path><path d="M -4214 -6170 L -5454 -6179 L -5818 -6707 L -4342 -7091 Z"></path><path d="M -5454 -6179 L -6067 -5597 L -6898 -6121 L -5818 -6707 Z"></path><path d="M -434 0 L 744 -1554 L 1425 -933 L 1683 0 Z"></path><path d="M 744 -1554 L 4381 -5439 L 4765 -4693 L 1425 -933 Z"></path><path d="M 4381 -5439 L 7959 -7260 L 8087 -6426 L 4765 -4693 Z"></path><path d="M 15370 -6252 C 15522 -421 20769 -4283 21139 -5389 C 21109 -6555 17222 -11783 15370 -6252"></path><path d="M -1349 -15002 C 2053 -19166 -3936 -19625 -4860 -19075 C -5541 -18243 -5971 -12252 -1349 -15002"></path><path d="M 12630 -6890 C 13926 -242 19190 -5674 19402 -7012 C 19143 -8341 13686 -13580 12630 -6890"></path><path d="M 5225 -11702 C 14758 -4266 15486 -17750 14203 -19799 C 12296 -21286 -1190 -21950 5225 -11702"></path><path d="M 7885 -6772 C 12498 932 16613 -8213 16273 -9976 C 15351 -11517 6186 -15589 7885 -6772"></path><path d="M -1403 -9218 C 5501 -13592 -2914 -17127 -4511 -16777 C -5892 -15903 -9387 -7470 -1403 -9218"></path><path d="M 675 -9301 C 9756 -14789 -1071 -19607 -3153 -19197 C -4970 -18099 -9736 -7249 675 -9301"></path><path d="M -2605 -8485 C 1826 -16771 -8596 -15542 -9996 -14288 C -10882 -12631 -9603 -2214 -2605 -8485"></path><path d="M -6449 -5882 C -14894 -17184 -19859 -2230 -19045 472 C -17356 2732 -2378 7626 -6449 -5882"></path><path d="M -6713 -3961 C -17162 -14455 -20107 1820 -18861 4507 C -16771 6606 -482 9473 -6713 -3961"></path></svg></svg>